<?xml version="1.0" encoding="UTF-8" standalone="no"?>
<!DOCTYPE svg PUBLIC "-//W3C//DTD SVG 1.1//EN" "http://www.w3.org/Graphics/SVG/1.1/DTD/svg11.dtd">
<svg width="100%" height="100%" viewBox="0 0 2481 3508" version="1.1" xmlns="http://www.w3.org/2000/svg" xmlns:xlink="http://www.w3.org/1999/xlink" xml:space="preserve" xmlns:serif="http://www.serif.com/" style="fill-rule:evenodd;clip-rule:evenodd;stroke-linecap:round;stroke-linejoin:round;stroke-miterlimit:1.5;">
    <g transform="matrix(0.452108,1.26018,-0.941257,0.337691,761.598,-504.365)">
        <g transform="matrix(1,0,0,0.6739,0,130.821)">
            <path d="M539.478,401.169L539.478,453.748" style="fill:none;stroke:black;stroke-width:0.94px;"/>
        </g>
        <path d="M701.295,418.886C678.145,375.121 606.551,390.925 539.478,401.169" style="fill:none;stroke:black;stroke-width:0.85px;"/>
        <g transform="matrix(1,0,0,-1,0,837.771)">
            <path d="M701.295,418.886C678.145,375.121 606.551,390.925 539.478,401.169" style="fill:none;stroke:black;stroke-width:0.85px;"/>
        </g>
    </g>
    <g transform="matrix(0.736153,0,0,1,183.704,0)">
        <path d="M410.391,414.052L774.316,414.052" style="fill:none;stroke:black;stroke-width:1.14px;stroke-dasharray:1.14,2.28,0,0;"/>
    </g>
    <g transform="matrix(0.866025,0.5,-0.91591,1.5864,536.797,-688.374)">
        <path d="M644.398,414.052L644.398,569.591" style="fill:none;stroke:black;stroke-width:0.68px;"/>
    </g>
    <g transform="matrix(-0.5,0.866025,-0.793201,-0.457955,1418.4,116.834)">
        <path d="M644.398,414.052L644.398,569.591" style="fill:none;stroke:black;stroke-width:1.04px;"/>
    </g>
    <g transform="matrix(0.736153,0,0,1,183.704,-123.374)">
        <path d="M410.391,414.052L774.316,414.052" style="fill:none;stroke:black;stroke-width:1.14px;stroke-dasharray:1.14,2.28,0,0;"/>
    </g>
    <g transform="matrix(0.736153,0,0,1,183.704,123.374)">
        <path d="M410.391,414.052L774.316,414.052" style="fill:none;stroke:black;stroke-width:1.14px;stroke-dasharray:1.14,2.28,0,0;"/>
    </g>
    <g transform="matrix(1.37803,-0.0671649,-0.0671649,1.21491,-209.771,-27.0584)">
        <path d="M611.221,316.927L684.38,520.845" style="fill:none;stroke:black;stroke-width:0.81px;"/>
    </g>
    <g transform="matrix(0.742931,0,0,0.742931,236.374,140.906)">
        <text x="513.522px" y="361.435px" style="font-family:'TimesNewRomanPSMT', 'Times New Roman', serif;font-size:37.5px;">A</text>
    </g>
    <g transform="matrix(0.742931,0,0,0.742931,332.394,17.907)">
        <text x="513.522px" y="361.435px" style="font-family:'TimesNewRomanPSMT', 'Times New Roman', serif;font-size:37.5px;">B</text>
    </g>
    <g transform="matrix(0.742931,0,0,0.742931,104.086,140.906)">
        <text x="513.522px" y="361.435px" style="font-family:'TimesNewRomanPSMT', 'Times New Roman', serif;font-size:37.5px;">G</text>
    </g>
    <g transform="matrix(0.742931,0,0,0.742931,351.983,140.906)">
        <text x="513.522px" y="361.435px" style="font-family:'TimesNewRomanPSMT', 'Times New Roman', serif;font-size:37.5px;">H</text>
    </g>
    <g transform="matrix(0.742931,0,0,0.742931,386.351,223.292)">
        <text x="513.522px" y="361.435px" style="font-family:'TimesNewRomanPSMT', 'Times New Roman', serif;font-size:37.5px;">I</text>
    </g>
    <g transform="matrix(0.742931,0,0,0.742931,174.004,292.914)">
        <text x="513.522px" y="361.435px" style="font-family:'TimesNewRomanPSMT', 'Times New Roman', serif;font-size:37.5px;">C</text>
    </g>
    <g transform="matrix(0.742931,0,0,0.742931,104.086,264.485)">
        <text x="513.522px" y="361.435px" style="font-family:'TimesNewRomanPSMT', 'Times New Roman', serif;font-size:37.5px;">D</text>
    </g>
    <g transform="matrix(0.742931,0,0,0.742931,317.889,311.782)">
        <text x="513.522px" y="361.435px" style="font-family:'TimesNewRomanPSMT', 'Times New Roman', serif;font-size:37.5px;">O</text>
    </g>
</svg>
